<svg viewBox="0 0 575 575" class="roots-wrapper"><g transform="rotate(0 0 0)"><svg data-root-id="3572724833247" xmlns="http://www.w3.org/2000/svg" viewBox="15.127500534057617 10.627498626708984 355.375 332.32501220703125" height="196.91" width="210.99" y="148.59" x="182" preserveAspectRatio="xMinYMin" zoom="1" editorType="buyer" data-layer-role="icon" style="position: absolute; height: 196.909px; width: 210.99px; top: 148.591px; left: 182px;"><path id="Layer_10" dataName="Layer 10" class="cls-1" d="M203.38,335.14c-5.84,3.75-15.29,3.75-21.12,0L49.69,239.84c-5.83-3.75-5.83-9.83,0-13.57L182.26,141c5.83-3.75,15.28-3.75,21.12,0L336,226.27c5.83,3.74,5.83,9.82,0,13.57Z" name="Layer 1" zoom="1" data-layer-id="8219744333261" style="fill: rgb(32, 250, 255); fill-opacity: 1;"></path><path id="Layer_10" dataName="Layer 10" class="cls-2" d="M203.38,325.06c-5.84,3.75-15.29,3.75-21.12,0L49.69,239.84c-5.83-3.75-5.83-9.83,0-13.57L182.26,141c5.83-3.75,15.28-3.75,21.12,0L336,226.27c5.83,3.74,5.83,9.82,0,13.57Z" name="Layer 2" zoom="1" data-layer-id="9722483633268" style="fill: rgb(0, 198, 255); fill-opacity: 1;"></path><path id="Layer_10" dataName="Layer 10" class="cls-3" d="M182.26,141,90.15,200.25l99.34,66.5c6.83,4.33,17.9,4.33,24.72,0L304.45,206,203.38,141C197.54,137.29,188.09,137.29,182.26,141Z" name="Layer 3" zoom="1" data-layer-id="1725717433276" style="fill: rgb(0, 154, 236); fill-opacity: 1;"></path><path id="Layer_10" dataName="Layer 10" class="cls-4" d="M360.38,133.75,205.17,233.53c-6.82,4.39-17.89,4.39-24.71,0L25.25,133.75c-3.29-2.11-5-4.86-5.1-7.63-.13,3.06,1.56,6.15,5.1,8.49L180.46,245.89c6.82,4.52,17.89,4.52,24.71,0L360.38,134.61c3.54-2.34,5.23-5.43,5.1-8.49C365.36,128.89,363.67,131.64,360.38,133.75Z" name="Layer 4" zoom="1" data-layer-id="3967505233284" style="fill: rgb(12, 12, 132); fill-opacity: 1;"></path><path id="Layer_10" dataName="Layer 10" class="cls-5" d="M205.17,234.36c-6.82,4.39-17.89,4.39-24.71,0L25.25,134.59c-6.83-4.39-6.83-11.5,0-15.89l155.2-99.78c6.83-4.39,17.9-4.39,24.72,0L360.38,118.7c6.83,4.39,6.83,11.5,0,15.89Z" name="Layer 5" zoom="1" data-layer-id="6892789733291" style="fill: rgb(41, 71, 230); fill-opacity: 1;"></path><path id="Layer_10" dataName="Layer 10" class="cls-6" d="M108.77,188.28l71.69,46.08c6.82,4.39,17.89,4.39,24.71,0l71.69-46.08L203.38,141c-5.84-3.75-15.29-3.75-21.12,0Z" name="Layer 6" zoom="1" data-layer-id="6335784833298" style="fill: rgb(43, 35, 226); fill-opacity: 1;"></path></svg></g><g transform="rotate(0 0 0)"><svg data-root-id="0332429133305" xmlns="http://www.w3.org/2000/svg" y="445.34" viewBox="0 0 0 0" x="287.5" height="0" width="0" fontUrl="http://fonts.gstatic.com/s/ubuntu/v15/4iCu6KVjbNBYlgoKeg7znUiAFpxm.ttf" zoom="1" editorType="buyer" data-layer-role="slogan" style="position: absolute; top: 445.34px; width: 0px; height: 0px; left: 287.495px;"><g data-horizontal-grow="center" zoom="1" root="[object Object]" style="fill: rgb(0, 198, 255); fill-opacity: 1;"><path d="" transform="translate(0, 0)"></path></g></svg></g><g transform="rotate(0 0 0)"><svg data-root-id="7925657633329" xmlns="http://www.w3.org/2000/svg" y="360.18" viewBox="3.7699999809265137 13.0600004196167 386.0899963378906 66.2300033569336" x="94.46" height="66.23" width="386.09" fontUrl="http://fonts.gstatic.com/s/fjallaone/v8/Yq6R-LCAWCX3-6Ky7FAFnOZwkxgtUb8.ttf" zoom="1" editorType="buyer" data-layer-role="brandName" style="position: absolute; top: 360.18px; width: 386.09px; height: 66.23px; left: 94.455px;"><g data-horizontal-grow="center" zoom="1" root="[object Object]" style="fill: rgb(255, 255, 255); fill-opacity: 1;"><path d="M19.58 79.26L19.58 79.26Q18.05 79.26 16.28 79.01Q14.51 78.76 12.74 77.96Q10.97 77.16 9.35 75.70Q7.73 74.23 6.49 71.83Q5.26 69.43 4.51 65.91Q3.77 62.38 3.77 57.51L3.77 57.51L3.77 34.47Q3.77 29.55 4.53 26.07Q5.29 22.58 6.55 20.20Q7.81 17.82 9.45 16.42Q11.08 15.01 12.83 14.26Q14.59 13.52 16.32 13.29Q18.05 13.06 19.54 13.06L19.54 13.06Q23.42 13.06 26.03 14.15Q28.64 15.23 30.22 17.12Q31.80 19.00 32.47 21.52Q33.13 24.03 33.13 26.85L33.13 26.85Q33.13 28.95 32.93 30.72Q32.72 32.49 32.30 34.62L32.30 34.62L24.30 34.62L24.30 31.31Q24.30 25.94 23.12 23.27Q21.94 20.60 19.65 20.60L19.65 20.60Q18.28 20.60 17.25 21.14Q16.22 21.67 15.54 22.95Q14.85 24.22 14.49 26.32Q14.13 28.41 14.13 31.54L14.13 31.54L14.13 61.24Q14.13 64.29 14.42 66.31Q14.70 68.33 15.35 69.54Q16.00 70.76 17.04 71.28Q18.09 71.79 19.58 71.79L19.58 71.79Q20.53 71.79 21.40 71.35Q22.28 70.92 22.95 69.98Q23.61 69.05 24.01 67.62Q24.41 66.19 24.41 64.25L24.41 64.25L24.41 57.89L33.44 57.89L33.44 63.91Q33.44 71.75 29.86 75.49Q26.28 79.22 19.58 79.26ZM45.21 78.69L45.21 13.63L55.07 13.63L55.07 70.92L68.52 70.92L68.52 78.69L45.21 78.69ZM73.93 78.69L85.92 13.63L97.27 13.63L109.31 78.69L99.33 78.69L97.54 67.03L85.66 67.03L83.94 78.69L73.93 78.69ZM86.80 59.60L96.40 59.60L91.83 27.19L91.41 27.19L86.80 59.60ZM119.59 78.69L119.59 13.63L130.29 13.63Q132.12 13.63 134.31 13.79Q136.50 13.94 138.69 14.53Q140.88 15.12 142.92 16.30Q144.96 17.48 146.54 19.54Q148.12 21.59 149.07 24.70Q150.02 27.80 150.02 32.22L150.02 32.22L150.02 33.86Q150.02 41.29 147.89 45.95Q145.76 50.62 141.61 52.67L141.61 52.67L152.04 78.69L141.61 78.69L132.96 54.35L129.27 54.35L129.27 78.69L119.59 78.69ZM129.27 47.23L130.75 47.23Q133.34 47.23 135.13 46.66Q136.92 46.08 138.03 44.73Q139.13 43.38 139.63 41.15Q140.12 38.92 140.12 35.65L140.12 35.65L140.12 30.51Q140.12 27.99 139.66 26.17Q139.21 24.34 138.12 23.16Q137.04 21.98 135.25 21.40Q133.46 20.83 130.75 20.83L130.75 20.83L129.27 20.83L129.27 47.23ZM158.67 78.69L170.67 13.63L182.02 13.63L194.05 78.69L184.07 78.69L182.28 67.03L170.40 67.03L168.69 78.69L158.67 78.69ZM171.54 59.60L181.14 59.60L176.57 27.19L176.15 27.19L171.54 59.60ZM204.34 78.69L204.34 13.63L214.20 13.63Q216.07 13.63 218.29 13.81Q220.52 13.98 222.75 14.61Q224.98 15.23 227.05 16.53Q229.13 17.82 230.73 20.05Q232.33 22.28 233.30 25.63Q234.27 28.98 234.27 33.78L234.27 33.78L234.27 36.07Q234.27 41.29 233.38 45.00Q232.48 48.71 231.00 51.24Q229.51 53.78 227.55 55.30Q225.59 56.82 223.47 57.60Q221.36 58.39 219.21 58.63Q217.06 58.88 215.15 58.88L215.15 58.88L214.20 58.88L214.20 78.69L204.34 78.69ZM214.20 51.64L214.70 51.64Q217.36 51.64 219.19 50.86Q221.02 50.08 222.10 48.43Q223.19 46.77 223.66 44.16Q224.14 41.55 224.14 37.90L224.14 37.90L224.14 32.03Q224.14 29.14 223.72 27.02Q223.30 24.91 222.22 23.54Q221.13 22.17 219.30 21.50Q217.48 20.83 214.70 20.83L214.70 20.83L214.20 20.83L214.20 51.64ZM245.51 58.69L245.51 13.63L255.45 13.63L255.45 61.32Q255.45 64.37 255.75 66.38Q256.06 68.40 256.72 69.60Q257.39 70.80 258.44 71.32Q259.49 71.83 260.93 71.83L260.93 71.83Q262.38 71.83 263.47 71.32Q264.55 70.80 265.26 69.60Q265.96 68.40 266.32 66.38Q266.68 64.37 266.68 61.32L266.68 61.32L266.68 13.63L276.51 13.63L276.51 58.69Q276.51 63.45 275.75 66.84Q274.99 70.23 273.73 72.52Q272.47 74.80 270.85 76.13Q269.24 77.47 267.50 78.17Q265.77 78.88 264.06 79.07Q262.34 79.26 260.93 79.26L260.93 79.26Q259.52 79.26 257.83 79.07Q256.13 78.88 254.42 78.17Q252.71 77.47 251.11 76.13Q249.51 74.80 248.25 72.52Q246.99 70.23 246.25 66.86Q245.51 63.49 245.51 58.69L245.51 58.69ZM291.40 78.69L291.40 13.63L301.27 13.63L301.27 70.92L314.71 70.92L314.71 78.69L291.40 78.69ZM322.44 65.51L322.44 65.51Q322.44 63.41 322.69 61.64Q322.94 59.87 323.43 57.81L323.43 57.81L331.09 57.81L331.09 60.98Q331.09 63.60 331.41 65.62Q331.74 67.64 332.48 69.03Q333.22 70.42 334.46 71.13Q335.70 71.83 337.49 71.83L337.49 71.83Q340.31 71.83 341.79 70.29Q343.28 68.75 343.28 65.77L343.28 65.77Q343.28 64.25 343.07 62.98Q342.86 61.70 342.34 60.44Q341.83 59.19 340.95 57.80Q340.08 56.41 338.71 54.69L338.71 54.69L328.42 42.47Q325.68 38.96 324.20 35.40Q322.71 31.84 322.71 27.80L322.71 27.80Q322.71 24.57 323.72 21.86Q324.73 19.16 326.63 17.20Q328.54 15.23 331.34 14.15Q334.14 13.06 337.68 13.06L337.68 13.06Q341.98 13.06 344.86 14.28Q347.73 15.50 349.45 17.48Q351.16 19.46 351.86 21.92Q352.57 24.38 352.57 26.85L352.57 26.85Q352.57 28.95 352.25 30.72Q351.92 32.49 351.50 34.62L351.50 34.62L343.89 34.62L343.89 31.54Q343.89 26.36 342.40 23.59Q340.92 20.83 337.56 20.83L337.56 20.83Q334.78 20.83 333.41 22.38Q332.04 23.92 332.04 26.51L332.04 26.51Q332.04 27.88 332.25 28.98Q332.46 30.09 332.86 31.02Q333.26 31.95 333.83 32.83Q334.40 33.71 335.13 34.66L335.13 34.66L346.59 48.52Q349.71 52.60 351.39 56.35Q353.06 60.10 353.06 64.29L353.06 64.29Q353.06 67.75 351.98 70.54Q350.89 73.32 348.88 75.26Q346.86 77.20 344 78.25Q341.14 79.29 337.56 79.29L337.56 79.29Q333.15 79.29 330.23 78.11Q327.32 76.93 325.59 74.99Q323.85 73.05 323.15 70.57Q322.44 68.10 322.44 65.51ZM365.37 78.69L365.37 13.63L389.48 13.63L389.48 21.40L375.23 21.40L375.23 40.87L386.24 40.87L386.24 48.64L375.23 48.64L375.23 70.92L389.86 70.92L389.86 78.69L365.37 78.69Z" transform="translate(0, 0)"></path></g></svg></g></svg>
